<svg width="64" height="64" viewBox="0 0 64 64" fill="none" xmlns="http://www.w3.org/2000/svg">
<path fill-rule="evenodd" clip-rule="evenodd" d="M48.2424 6.79672C46.7693 5.9719 45.2011 5.88883 43.5435 6.096C41.9688 6.2928 40.0533 6.7907 37.7512 7.38907L32.3691 8.78774C30.068 9.38568 28.152 9.88358 26.6859 10.4771C25.1445 11.1011 23.8118 11.9396 22.9474 13.3919C22.0774 14.8533 21.991 16.4156 22.2078 18.0474C22.4122 19.5859 22.9281 21.453 23.5427 23.6774L24.9895 28.9144C25.6043 31.14 26.12 33.0067 26.7357 34.4371C27.3893 35.956 28.2627 37.2491 29.7443 38.0787C31.2171 38.9035 32.7853 38.9867 34.4432 38.7795C36.0176 38.5827 37.9333 38.0848 40.2352 37.4864L45.6176 36.0877C47.9187 35.4896 49.8347 34.9917 51.3005 34.3984C52.8419 33.7741 54.1747 32.9357 55.0392 31.4835C55.9091 30.0221 55.9955 28.4597 55.7787 26.828C55.5741 25.2895 55.0584 23.4224 54.4437 21.198L52.9968 15.961C52.3821 13.7355 51.8664 11.8687 51.2509 10.4382C50.5971 8.91939 49.724 7.62638 48.2424 6.79672ZM38.6267 11.2944C41.0931 10.6534 42.7549 10.2257 44.0395 10.0651C45.2704 9.91128 45.8597 10.0469 46.288 10.2868C46.7077 10.5218 47.1083 10.9315 47.5768 12.0196C48.0707 13.1671 48.5165 14.7649 49.1787 17.1613L50.5504 22.1268C51.2128 24.5238 51.6499 26.123 51.8136 27.3549C51.9688 28.5248 51.8299 29.0549 51.6021 29.4376C51.3688 29.8293 50.9459 30.2264 49.7995 30.6907C48.6056 31.1741 46.9467 31.6093 44.4795 32.2504L39.36 33.5811C36.8933 34.2221 35.2315 34.6499 33.9469 34.8104C32.716 34.9643 32.1269 34.8285 31.6984 34.5885C31.2789 34.3536 30.8781 33.944 30.4099 32.8557C29.916 31.7083 29.4699 30.1104 28.8077 27.7141L27.436 22.7486C26.7739 20.3517 26.3367 18.7525 26.173 17.5206C26.0175 16.3506 26.1567 15.8205 26.3845 15.4379C26.6177 15.0461 27.0405 14.6489 28.1869 14.1847C29.3811 13.7013 31.04 13.266 33.5069 12.6249L38.6267 11.2944Z" fill="#FFFEF8"/>
<path fill-rule="evenodd" clip-rule="evenodd" d="M8.5352 12.5992C7.47085 12.3039 6.36861 12.9273 6.07331 13.9917C5.778 15.0561 6.40144 16.1583 7.46581 16.4536L12.009 17.7141C13.1439 18.029 13.9891 18.8863 14.2778 19.9314L19.4813 38.7664C19.2814 38.8056 19.0816 38.8512 18.8821 38.9032C13.61 40.2733 10.3883 45.5768 11.8356 50.8155C13.2759 56.0288 18.7524 59.0357 24.0037 57.6709C28.5992 56.4768 31.6368 52.2939 31.3821 47.7704L53.8368 41.9349C54.9059 41.6571 55.5475 40.5651 55.2696 39.496C54.9917 38.4269 53.8997 37.7856 52.8307 38.0635L30.3291 43.9112C28.9736 41.2784 26.4839 39.4472 23.645 38.8165L18.1334 18.8662C17.4584 16.4229 15.5234 14.5381 13.0784 13.8597L8.5352 12.5992ZM19.8882 42.7744C23.1195 41.9347 26.362 43.8101 27.1947 46.8237C28.0203 49.8123 26.2079 52.9653 22.9975 53.7995C19.7663 54.6392 16.5238 52.7637 15.6912 49.7501C14.8656 46.7619 16.6778 43.6088 19.8882 42.7744Z" fill="#FFFEF8"/>
</svg>
