<svg width="65" height="64" viewBox="0 0 65 64" fill="none" xmlns="http://www.w3.org/2000/svg">
<path fill-rule="evenodd" clip-rule="evenodd" d="M53.4668 27.1468C52.6401 18.6668 47.6268 5.3335 32.1335 5.3335C16.6401 5.3335 11.6268 18.6668 10.8001 27.1468C7.90016 28.2474 5.98729 31.0317 6.00006 34.1335V37.8668C6.00006 41.9906 9.34307 45.3335 13.4668 45.3335C17.5905 45.3335 20.9335 41.9906 20.9335 37.8668V34.1335C20.9201 31.0987 19.0774 28.3716 16.2668 27.2268C16.8001 22.3202 19.4135 10.6668 32.1335 10.6668C44.8535 10.6668 47.4401 22.3202 47.9735 27.2268C45.1685 28.3741 43.3352 31.103 43.3335 34.1335V37.8668C43.345 40.7335 44.9911 43.3423 47.5735 44.5868C46.4535 46.6935 43.6001 49.5468 36.5868 50.4002C35.1849 48.2713 32.4725 47.4321 30.1133 48.3972C27.7541 49.3623 26.4076 51.8619 26.8995 54.3629C27.3915 56.8639 29.5845 58.6668 32.1335 58.6668C34.1477 58.6557 35.9838 57.5107 36.8801 55.7068C48.3201 54.4002 51.9735 48.5068 53.1201 45.0402C56.2223 44.0353 58.3086 41.1274 58.2668 37.8668V34.1335C58.2796 31.0317 56.3668 28.2474 53.4668 27.1468ZM15.6001 37.8668C15.6001 39.045 14.645 40.0002 13.4668 40.0002C12.2886 40.0002 11.3335 39.045 11.3335 37.8668V34.1335C11.3335 33.3713 11.7401 32.6671 12.4001 32.286C13.0602 31.9049 13.8734 31.9049 14.5335 32.286C15.1935 32.6671 15.6001 33.3713 15.6001 34.1335V37.8668ZM48.6668 34.1335C48.6668 32.9553 49.6219 32.0002 50.8001 32.0002C51.9783 32.0002 52.9335 32.9553 52.9335 34.1335V37.8668C52.9335 39.045 51.9783 40.0002 50.8001 40.0002C49.6219 40.0002 48.6668 39.045 48.6668 37.8668V34.1335Z" fill="#FFFEF8"/>
</svg>
