<svg width="65" height="64" viewBox="0 0 65 64" fill="none" xmlns="http://www.w3.org/2000/svg">
<path d="M50.9993 32.0002C50.9993 33.473 49.8055 34.6668 48.3327 34.6668C46.8599 34.6668 45.666 33.473 45.666 32.0002C45.666 30.5274 46.8599 29.3335 48.3327 29.3335C49.8055 29.3335 50.9993 30.5274 50.9993 32.0002Z" fill="#FFFEF8"/>
<path fill-rule="evenodd" clip-rule="evenodd" d="M26.8489 8.66651H35.1497C40.0505 8.66645 43.9321 8.66643 46.97 9.07488C50.0964 9.4952 52.6271 10.3809 54.6228 12.3765C57.0876 14.8415 57.8732 18.1429 58.1585 22.4267C59.6977 23.1041 60.8601 24.5366 60.9881 26.3513C60.9996 26.5118 60.9993 26.6849 60.9993 26.8452C60.9993 26.8598 60.9993 26.8742 60.9993 26.8886V37.111C60.9993 37.1254 60.9993 37.1398 60.9993 37.1545C60.9993 37.3148 60.9996 37.4878 60.9881 37.6484C60.8601 39.463 59.6977 40.8956 58.1585 41.5729C57.8732 45.8569 57.0876 49.1582 54.6228 51.6233C52.6271 53.6188 50.0964 54.5044 46.97 54.9249C43.9321 55.3332 40.0505 55.3332 35.1497 55.3332H26.8489C21.9482 55.3332 18.0665 55.3332 15.0286 54.9249C11.9022 54.5044 9.37164 53.6188 7.37599 51.6233C5.38036 49.6276 4.49471 47.0969 4.07439 43.9705C3.66594 40.9326 3.66596 37.051 3.66602 32.1502V31.8494C3.66596 26.9486 3.66594 23.067 4.07439 20.0291C4.49471 16.9027 5.38036 14.3721 7.37599 12.3765C9.37164 10.3809 11.9022 9.4952 15.0286 9.07488C18.0665 8.66643 21.9482 8.66645 26.8489 8.66651ZM54.1137 41.9998H48.9481C43.2276 41.9998 38.3327 37.6596 38.3327 31.9998C38.3327 26.34 43.2276 21.9998 48.9481 21.9998H54.1137C53.8103 18.4226 53.1236 16.5343 51.7943 15.2049C50.6657 14.0763 49.1199 13.3999 46.4372 13.0392C43.6967 12.6707 40.0841 12.6665 34.9993 12.6665H26.9993C21.9145 12.6665 18.302 12.6707 15.5616 13.0392C12.8787 13.3999 11.333 14.0763 10.2044 15.2049C9.07586 16.3335 8.3994 17.8792 8.03871 20.5621C7.67026 23.3025 7.66602 26.915 7.66602 31.9998C7.66602 37.0846 7.67026 40.6972 8.03871 43.4377C8.3994 46.1204 9.07586 47.6662 10.2044 48.7948C11.333 49.9233 12.8787 50.5998 15.5616 50.9604C18.302 51.3289 21.9145 51.3332 26.9993 51.3332H34.9993C40.0841 51.3332 43.6967 51.3289 46.4372 50.9604C49.1199 50.5998 50.6657 49.9233 51.7943 48.7948C53.1236 47.4654 53.8103 45.5772 54.1137 41.9998ZM14.3327 21.3332C14.3327 20.2286 15.2281 19.3332 16.3327 19.3332H26.9993C28.1039 19.3332 28.9993 20.2286 28.9993 21.3332C28.9993 22.4377 28.1039 23.3332 26.9993 23.3332H16.3327C15.2281 23.3332 14.3327 22.4377 14.3327 21.3332ZM56.1287 26.0005C56.0745 25.9999 56.0036 25.9998 55.8881 25.9998H48.9481C45.1524 25.9998 42.3327 28.823 42.3327 31.9998C42.3327 35.1766 45.1524 37.9998 48.9481 37.9998H55.8881C56.0036 37.9998 56.0745 37.9998 56.1287 37.9993C56.162 37.9988 56.1796 37.9985 56.1879 37.998L56.1937 37.9977C56.7436 37.9644 56.9799 37.5934 56.998 37.3702C56.998 37.3702 56.9985 37.3534 56.9988 37.3294C56.9993 37.282 56.9993 37.219 56.9993 37.111V26.8886C56.9993 26.7806 56.9993 26.7177 56.9988 26.6702C56.9985 26.6462 56.998 26.6294 56.998 26.6294C56.9799 26.4063 56.7436 26.0353 56.1937 26.0019C56.1937 26.0019 56.1807 26.001 56.1287 26.0005Z" fill="#FFFEF8"/>
</svg>
